<svg width="18" height="15" viewBox="0 0 18 15" fill="none" xmlns="http://www.w3.org/2000/svg">
<path fill-rule="evenodd" clip-rule="evenodd" d="M14.686 6.27971C14.5141 5.20284 13.9856 4.19535 13.1622 3.4106C12.1435 2.4397 10.7569 1.89034 9.3064 1.89034V0.901077C11.0043 0.901077 12.6372 1.54367 13.8447 2.69448C14.8094 3.61381 15.4395 4.79797 15.6545 6.07229L16.8395 4.5602L17.6238 5.17406L15.6983 7.63104L15.4089 8.00027L15.0215 7.7245L12.4435 5.88944L13.0127 5.08866L14.686 6.27971ZM9.3064 1.89034C7.8559 1.89034 6.46932 2.4397 5.45058 3.4106C4.43264 4.38073 3.86548 5.69129 3.86548 7.05249H2.87622C2.87622 5.41314 3.55976 3.84605 4.76809 2.69448C5.9756 1.54367 7.60848 0.901078 9.3064 0.901078V1.89034Z" fill="black"/>
<path fill-rule="evenodd" clip-rule="evenodd" d="M3.85941 9.37894C4.03131 10.4558 4.55977 11.4633 5.38319 12.2481C6.40194 13.219 7.78852 13.7683 9.23901 13.7683V14.7576C7.54109 14.7576 5.90822 14.115 4.7007 12.9642C3.73606 12.0448 3.10588 10.8607 2.89093 9.58636L1.70594 11.0985L0.921617 10.4846L2.84711 8.02761L3.13646 7.65838L3.52389 7.93415L6.10195 9.76921L5.53271 10.57L3.85941 9.37894ZM9.23901 13.7683C10.6895 13.7683 12.0761 13.219 13.0948 12.2481C14.1128 11.2779 14.6799 9.96738 14.6799 8.60618H15.6692C15.6692 10.2455 14.9857 11.8126 13.7773 12.9642C12.5698 14.115 10.9369 14.7576 9.23901 14.7576V13.7683Z" fill="black"/>
</svg>