<svg width="35" height="57" viewBox="0 0 35 57" fill="none" xmlns="http://www.w3.org/2000/svg">
<path d="M21.8856 30.3599C26.0284 31.1347 34.314 35.009 32.8226 43.3774C31.3312 51.7458 23.8741 55.0002 17.9085 55.0002C12.9371 54.8452 2 51.7458 2 43.3774M21.8856 30.3599L23.8741 36.4037M21.8856 30.3599L28.3484 27.1055" stroke="#B62C00" stroke-width="4"/>
<path d="M23.8741 36.4037L21.8855 30.3599L28.3483 27.1055" stroke="#B62C00" stroke-width="4"/>
<path d="M31.3309 13.6228C33.3194 8.04386 26.8566 2 18.9024 2C9.45682 2 2.0993 8.50876 2.49682 15.9474C2.89435 23.386 12.4396 27.5702 16.4167 28.0351M16.4167 28.0351L10.451 31.2895M16.4167 28.0351L13.4338 21.9912" stroke="#850000" stroke-width="4"/>
<path d="M10.4509 31.2895L16.4166 28.0351L13.4338 21.9912" stroke="#850000" stroke-width="4"/>
</svg>