<svg width="16" height="26" viewBox="0 0 16 26" fill="none" xmlns="http://www.w3.org/2000/svg">
<path d="M9.98058 13.9365C11.8515 14.2865 15.5934 16.0361 14.9199 19.8154C14.2464 23.5947 10.8786 25.0644 8.18446 25.0644C5.93932 24.9944 1 23.5947 1 19.8154M9.98058 13.9365L10.8786 16.666M9.98058 13.9365L12.8993 12.4668" stroke="white" stroke-width="1.61"/>
<path d="M10.8786 16.666L9.98059 13.9365L12.8993 12.4668" stroke="white" stroke-width="1.61"/>
<path d="M14.2462 6.37792C15.1442 3.85839 12.2256 1.12891 8.63334 1.12891C4.36758 1.12891 1.04483 4.06835 1.22435 7.42772C1.40388 10.7871 5.71463 12.6767 7.51074 12.8867M7.51074 12.8867L4.81655 14.3564M7.51074 12.8867L6.16365 10.1572" stroke="white" stroke-width="1.61"/>
<path d="M4.81653 14.3564L7.51072 12.8867L6.16363 10.1572" stroke="white" stroke-width="1.61"/>
</svg>